<svg width="175" height="175" viewBox="0 0 175 175" fill="none" xmlns="http://www.w3.org/2000/svg">
<circle cx="88" cy="88" r="70" fill="white"/>
<path d="M87.8956 101.48C86.109 101.48 84.5756 101.187 83.2956 100.6C82.0423 100.013 81.0423 99.2267 80.2956 98.24C79.549 97.2533 79.0156 96.16 78.6956 94.96L82.0156 94C82.309 95.3867 82.9356 96.52 83.8956 97.4C84.8823 98.2533 86.229 98.68 87.9356 98.68C89.6956 98.68 91.1356 98.24 92.2556 97.36C93.4023 96.4533 93.9756 95.1733 93.9756 93.52C93.9756 92.5067 93.7623 91.68 93.3356 91.04C92.909 90.3733 92.3623 89.8667 91.6956 89.52C91.029 89.1733 90.309 88.92 89.5356 88.76C88.789 88.6 88.069 88.5067 87.3756 88.48C86.709 88.4533 86.1623 88.44 85.7356 88.44V85.4C86.4823 85.4 87.2823 85.36 88.1356 85.28C89.0156 85.2 89.8423 85.0267 90.6156 84.76C91.4156 84.4667 92.0556 84.0267 92.5356 83.44C93.0423 82.8267 93.2956 82 93.2956 80.96C93.2956 79.52 92.7756 78.44 91.7356 77.72C90.7223 76.9733 89.509 76.6 88.0956 76.6C86.469 76.6 85.1756 77.0133 84.2156 77.84C83.2556 78.6667 82.6423 79.7467 82.3756 81.08L79.0956 80.12C79.5756 78.2267 80.589 76.7067 82.1356 75.56C83.709 74.3867 85.7223 73.8 88.1756 73.8C89.7223 73.8 91.149 74.0267 92.4556 74.48C93.7623 74.9067 94.8156 75.6267 95.6156 76.64C96.4156 77.6267 96.8156 78.9467 96.8156 80.6C96.8156 81.96 96.4423 83.1867 95.6956 84.28C94.949 85.3733 93.869 86.2133 92.4556 86.8C94.4556 87.4133 95.8023 88.3333 96.4956 89.56C97.2156 90.76 97.5756 92.0667 97.5756 93.48C97.5756 95.2667 97.1223 96.76 96.2156 97.96C95.309 99.1333 94.1223 100.013 92.6556 100.6C91.189 101.187 89.6023 101.48 87.8956 101.48Z" fill="#00617B"/>
<circle cx="87.5" cy="87.5" r="86" stroke="url(#paint0_linear_316_913)" stroke-width="3"/>
<defs>
<linearGradient id="paint0_linear_316_913" x1="0" y1="87.5" x2="87.5" y2="87.5" gradientUnits="userSpaceOnUse">
<stop stop-color="#FED8DF" stop-opacity="0.6"/>
<stop offset="0.621428" stop-color="white" stop-opacity="0"/>
</linearGradient>
</defs>
</svg>
