<svg width="175" height="175" viewBox="0 0 175 175" fill="none" xmlns="http://www.w3.org/2000/svg">
<circle cx="88" cy="88" r="70" fill="white"/>
<path d="M78.3834 101V98C81.5301 95.68 84.2101 93.5467 86.4234 91.6C88.6634 89.6533 90.3701 87.84 91.5434 86.16C92.7434 84.4533 93.3434 82.8133 93.3434 81.24C93.3434 79.8533 92.9034 78.7333 92.0234 77.88C91.1434 77.0267 89.9168 76.6 88.3434 76.6C87.0901 76.6 85.9168 76.9467 84.8234 77.64C83.7568 78.3067 83.0634 79.4533 82.7434 81.08L79.3834 80.12C79.8634 78.1733 80.9034 76.64 82.5034 75.52C84.1034 74.3733 86.0768 73.8 88.4234 73.8C90.0768 73.8 91.5301 74.08 92.7834 74.64C94.0634 75.1733 95.0634 75.96 95.7834 77C96.5301 78.04 96.9034 79.3067 96.9034 80.8C96.9034 82.3467 96.5301 83.8667 95.7834 85.36C95.0368 86.8267 94.0101 88.2667 92.7034 89.68C91.3968 91.0667 89.9034 92.4533 88.2234 93.84C86.5434 95.2 84.7701 96.56 82.9034 97.92H97.6234V101H78.3834Z" fill="#00617B"/>
<circle cx="87.5" cy="87.5" r="86" stroke="url(#paint0_linear_316_912)" stroke-width="3"/>
<defs>
<linearGradient id="paint0_linear_316_912" x1="0" y1="87.5" x2="87.5" y2="87.5" gradientUnits="userSpaceOnUse">
<stop stop-color="#FED8DF" stop-opacity="0.6"/>
<stop offset="0.621428" stop-color="white" stop-opacity="0"/>
</linearGradient>
</defs>
</svg>
